# xmcd
#
# Track frame offsets:
#	150
#	15086
#	29950
#	49143
#	66608
#	86932
#	106235
#	128728
#	145019
#	155548
#	173344
#	187214
#	199065
#	216510
#	226509
#
# Disc length: 3238 seconds
#
# Revision: 1
# Processed by: cddbd v1.5.2PL0 Copyright (c) Steve Scherf et al.
# Submitted via: audiograbber 1.83.01
#
DISCID=d30ca40f
DTITLE=Collin Raye - Through It All - His Love Remains
DYEAR=1900
DGENRE=
TTITLE0=Come Thou Fount of Every Blessing - Duet with Andrea Thomas
TTITLE1=Give Me Jesus 
TTITLE2=How Great Thou Art 
TTITLE3=Ave Maria 
TTITLE4=How Beautiful - Duet with Andrea Thomas
TTITLE5=Undefeated
TTITLE6=Here I Am, Lord 
TTITLE7=I Get What I Need 
TTITLE8=Lord, I Am Not Worthy - (Duet with Marie Bellet) 
TTITLE9=Were You There 
TTITLE10=I Am The Bread of Life 
TTITLE11=Let All Mortal Flesh Keep Silence 
TTITLE12=Love Remains
TTITLE13=Joyful, Joyful We Adore Thee
TTITLE14=Amazing Grace 
EXTD=
EXTT0=
EXTT1=
EXTT2=
EXTT3=
EXTT4=
EXTT5=
EXTT6=
EXTT7=
EXTT8=
EXTT9=
EXTT10=
EXTT11=
EXTT12=
EXTT13=
EXTT14=
PLAYORDER=
